<?xml version="1.0" standalone="no"?>
<!DOCTYPE svg PUBLIC "-//W3C//DTD SVG 20010904//EN"
 "http://www.w3.org/TR/2001/REC-SVG-20010904/DTD/svg10.dtd">
<svg version="1.0" xmlns="http://www.w3.org/2000/svg"
 width="100.000000pt" height="100.000000pt" viewBox="0 0 100.000000 100.000000"
 preserveAspectRatio="xMidYMid meet">
<metadata>
Created by potrace 1.14, written by Peter Selinger 2001-2017
</metadata>
<g transform="translate(0.000000,100.000000) scale(0.100000,-0.100000)"
fill="#000000" stroke="none">
<path d="M0 500 l0 -500 500 0 500 0 0 500 0 500 -500 0 -500 0 0 -500z m474
255 c17 -13 17 -15 4 -15 -9 0 -20 5 -23 10 -4 6 -11 8 -16 5 -5 -4 -9 -1 -9
4 0 15 21 13 44 -4z m-297 -17 c-3 -8 -6 -5 -6 6 -1 11 2 17 5 13 3 -3 4 -12
1 -19z m203 15 c-8 -3 -24 -13 -35 -22 -20 -16 -20 -16 -1 7 11 12 26 22 35
21 14 0 14 -1 1 -6z m-40 -59 c0 -8 -4 -12 -10 -9 -5 3 -10 10 -10 16 0 5 5 9
10 9 6 0 10 -7 10 -16z m147 -247 c0 -8 -6 -14 -14 -14 -9 0 -10 4 -2 14 6 7
12 13 14 13 1 0 2 -6 2 -13z m60 -139 c-3 -8 -6 -5 -6 6 -1 11 2 17 5 13 3 -3
4 -12 1 -19z"/>
</g>
</svg>
